mastitorrents.com
  
http://mastitorrents.com/forums/index.php
  
http://thepiratebay.se/user/HDvideos/0/7

3 Bachelors (2012) Hindi 1CD DVDRip x264 5.1 ESubs

Format                                   : Matroska
Format version                           : Version 2
File size                                : 762 MiB
Duration                                 : 1h 49mn
Overall bit rate                         : 970 Kbps
Movie name                               : 3 Bachelors (2012)-DVDRip - x264 - E.Subs - 5.1
Encoded date                             : UTC 2012-07-30 15:06:19

Video

ormat                                   : AVC
Format/Info                              : Advanced Video Codec
Format profile                           : High@L3.0
Format settings, CABAC                   : Yes
Format settings, ReFrames                : 4 frames
Muxing mode                              : Header stripping
Codec ID                                 : V_MPEG4/ISO/AVC
Duration                                 : 1h 49mn
Bit rate                                 : 841 Kbps
Width                                    : 720 pixels
Height                                   : 304 pixels
Display aspect ratio                     : 2.35:1
Frame rate                               : 29.970 fps
Color space                              : YUV
Chroma subsampling                       : 4:2:0
Bit depth                                : 8 bits
Scan type                                : Progressive
Bits/(Pixel*Frame)                       : 0.128
Stream size                              : 646 MiB (85%)
Writing library                          : x264 core 125 r2200 999b753

Audio

Format                                   : AC-3
Format/Info                              : Audio Coding 3
Mode extension                           : CM (complete main)
Format settings, Endianness              : Big
Muxing mode                              : Header stripping
Codec ID                                 : A_AC3
Duration                                 : 1h 49mn
Bit rate mode                            : Constant
Bit rate                                 : 128 Kbps
Channel(s)                               : 6 channels
Channel positions                        : Front: L C R, Side: L R, LFE
Sampling rate                            : 48.0 KHz
Bit depth                                : 16 bits
Compression mode                         : Lossy
Stream size                              : 101 MiB (13%)
Language                                 : Hindi